<svg xmlns="http://www.w3.org/2000/svg" xmlns:xlink="http://www.w3.org/1999/xlink" width="500" zoomAndPan="magnify" viewBox="0 0 375 374.999991" height="500" preserveAspectRatio="xMidYMid meet" version="1.0"><defs><g/></defs><g fill="#3f6556" fill-opacity="0.4"><g transform="translate(85.955133, 195.462364)"><g><path d="M 8.6875 -5.890625 L 23.78125 -5.890625 L 22.75 0 L 0.515625 0 L 6.6875 -35.546875 L 13.84375 -35.546875 Z M 8.6875 -5.890625 "/></g></g></g><g fill="#3f6556" fill-opacity="0.4"><g transform="translate(110.114659, 195.462364)"><g><path d="M 15.1875 -26.90625 C 17.507812 -26.875 19.515625 -26.273438 21.203125 -25.109375 C 22.890625 -23.941406 24.125 -22.335938 24.90625 -20.296875 C 25.695312 -18.253906 25.976562 -15.988281 25.75 -13.5 C 25.382812 -9.300781 23.925781 -5.898438 21.375 -3.296875 C 18.820312 -0.703125 15.675781 0.554688 11.9375 0.484375 C 9.644531 0.453125 7.660156 -0.132812 5.984375 -1.28125 C 4.304688 -2.425781 3.066406 -4.015625 2.265625 -6.046875 C 1.472656 -8.085938 1.191406 -10.335938 1.421875 -12.796875 C 1.835938 -17.160156 3.316406 -20.625 5.859375 -23.1875 C 8.398438 -25.757812 11.507812 -27 15.1875 -26.90625 Z M 8.234375 -10.28125 C 8.265625 -8.71875 8.628906 -7.484375 9.328125 -6.578125 C 10.023438 -5.671875 11.007812 -5.203125 12.28125 -5.171875 C 14.394531 -5.109375 16.050781 -6.082031 17.25 -8.09375 C 18.457031 -10.101562 19.023438 -12.742188 18.953125 -16.015625 C 18.878906 -17.578125 18.492188 -18.828125 17.796875 -19.765625 C 17.109375 -20.703125 16.125 -21.1875 14.84375 -21.21875 C 12.789062 -21.28125 11.148438 -20.3125 9.921875 -18.3125 C 8.691406 -16.320312 8.128906 -13.644531 8.234375 -10.28125 Z M 8.234375 -10.28125 "/></g></g></g><g fill="#3f6556" fill-opacity="0.4"><g transform="translate(135.421467, 195.462364)"><g><path d="M 15.1875 -26.90625 C 17.507812 -26.875 19.515625 -26.273438 21.203125 -25.109375 C 22.890625 -23.941406 24.125 -22.335938 24.90625 -20.296875 C 25.695312 -18.253906 25.976562 -15.988281 25.75 -13.5 C 25.382812 -9.300781 23.925781 -5.898438 21.375 -3.296875 C 18.820312 -0.703125 15.675781 0.554688 11.9375 0.484375 C 9.644531 0.453125 7.660156 -0.132812 5.984375 -1.28125 C 4.304688 -2.425781 3.066406 -4.015625 2.265625 -6.046875 C 1.472656 -8.085938 1.191406 -10.335938 1.421875 -12.796875 C 1.835938 -17.160156 3.316406 -20.625 5.859375 -23.1875 C 8.398438 -25.757812 11.507812 -27 15.1875 -26.90625 Z M 8.234375 -10.28125 C 8.265625 -8.71875 8.628906 -7.484375 9.328125 -6.578125 C 10.023438 -5.671875 11.007812 -5.203125 12.28125 -5.171875 C 14.394531 -5.109375 16.050781 -6.082031 17.25 -8.09375 C 18.457031 -10.101562 19.023438 -12.742188 18.953125 -16.015625 C 18.878906 -17.578125 18.492188 -18.828125 17.796875 -19.765625 C 17.109375 -20.703125 16.125 -21.1875 14.84375 -21.21875 C 12.789062 -21.28125 11.148438 -20.3125 9.921875 -18.3125 C 8.691406 -16.320312 8.128906 -13.644531 8.234375 -10.28125 Z M 8.234375 -10.28125 "/></g></g></g><g fill="#3f6556" fill-opacity="0.4"><g transform="translate(160.728272, 195.462364)"><g><path d="M 25.4375 -13.140625 C 25.09375 -10.367188 24.367188 -7.910156 23.265625 -5.765625 C 22.160156 -3.617188 20.785156 -2.019531 19.140625 -0.96875 C 17.492188 0.0703125 15.671875 0.566406 13.671875 0.515625 C 11.117188 0.453125 9.101562 -0.5 7.625 -2.34375 L 5.203125 10.15625 L -1.6875 10.15625 L 4.640625 -26.421875 L 10.984375 -26.4375 L 10.515625 -23.78125 C 12.421875 -25.925781 14.664062 -26.96875 17.25 -26.90625 C 19.84375 -26.84375 21.851562 -25.898438 23.28125 -24.078125 C 24.71875 -22.265625 25.488281 -19.804688 25.59375 -16.703125 C 25.625 -15.691406 25.570312 -14.503906 25.4375 -13.140625 Z M 18.609375 -13.640625 L 18.75 -15.984375 C 18.78125 -17.566406 18.488281 -18.820312 17.875 -19.75 C 17.269531 -20.675781 16.378906 -21.15625 15.203125 -21.1875 C 13.203125 -21.257812 11.550781 -20.414062 10.25 -18.65625 L 8.28125 -7.765625 C 8.882812 -6.117188 10.175781 -5.265625 12.15625 -5.203125 C 13.820312 -5.148438 15.207031 -5.789062 16.3125 -7.125 C 17.414062 -8.457031 18.179688 -10.628906 18.609375 -13.640625 Z M 18.609375 -13.640625 "/></g></g></g><g fill="#3f6556" fill-opacity="1"><g transform="translate(83.745424, 193.252648)"><g><path d="M 8.6875 -5.890625 L 23.78125 -5.890625 L 22.75 0 L 0.515625 0 L 6.6875 -35.546875 L 13.84375 -35.546875 Z M 8.6875 -5.890625 "/></g></g></g><g fill="#3f6556" fill-opacity="1"><g transform="translate(107.90495, 193.252648)"><g><path d="M 15.1875 -26.90625 C 17.507812 -26.875 19.515625 -26.273438 21.203125 -25.109375 C 22.890625 -23.941406 24.125 -22.335938 24.90625 -20.296875 C 25.695312 -18.253906 25.976562 -15.988281 25.75 -13.5 C 25.382812 -9.300781 23.925781 -5.898438 21.375 -3.296875 C 18.820312 -0.703125 15.675781 0.554688 11.9375 0.484375 C 9.644531 0.453125 7.660156 -0.132812 5.984375 -1.28125 C 4.304688 -2.425781 3.066406 -4.015625 2.265625 -6.046875 C 1.472656 -8.085938 1.191406 -10.335938 1.421875 -12.796875 C 1.835938 -17.160156 3.316406 -20.625 5.859375 -23.1875 C 8.398438 -25.757812 11.507812 -27 15.1875 -26.90625 Z M 8.234375 -10.28125 C 8.265625 -8.71875 8.628906 -7.484375 9.328125 -6.578125 C 10.023438 -5.671875 11.007812 -5.203125 12.28125 -5.171875 C 14.394531 -5.109375 16.050781 -6.082031 17.25 -8.09375 C 18.457031 -10.101562 19.023438 -12.742188 18.953125 -16.015625 C 18.878906 -17.578125 18.492188 -18.828125 17.796875 -19.765625 C 17.109375 -20.703125 16.125 -21.1875 14.84375 -21.21875 C 12.789062 -21.28125 11.148438 -20.3125 9.921875 -18.3125 C 8.691406 -16.320312 8.128906 -13.644531 8.234375 -10.28125 Z M 8.234375 -10.28125 "/></g></g></g><g fill="#3f6556" fill-opacity="1"><g transform="translate(133.211758, 193.252648)"><g><path d="M 15.1875 -26.90625 C 17.507812 -26.875 19.515625 -26.273438 21.203125 -25.109375 C 22.890625 -23.941406 24.125 -22.335938 24.90625 -20.296875 C 25.695312 -18.253906 25.976562 -15.988281 25.75 -13.5 C 25.382812 -9.300781 23.925781 -5.898438 21.375 -3.296875 C 18.820312 -0.703125 15.675781 0.554688 11.9375 0.484375 C 9.644531 0.453125 7.660156 -0.132812 5.984375 -1.28125 C 4.304688 -2.425781 3.066406 -4.015625 2.265625 -6.046875 C 1.472656 -8.085938 1.191406 -10.335938 1.421875 -12.796875 C 1.835938 -17.160156 3.316406 -20.625 5.859375 -23.1875 C 8.398438 -25.757812 11.507812 -27 15.1875 -26.90625 Z M 8.234375 -10.28125 C 8.265625 -8.71875 8.628906 -7.484375 9.328125 -6.578125 C 10.023438 -5.671875 11.007812 -5.203125 12.28125 -5.171875 C 14.394531 -5.109375 16.050781 -6.082031 17.25 -8.09375 C 18.457031 -10.101562 19.023438 -12.742188 18.953125 -16.015625 C 18.878906 -17.578125 18.492188 -18.828125 17.796875 -19.765625 C 17.109375 -20.703125 16.125 -21.1875 14.84375 -21.21875 C 12.789062 -21.28125 11.148438 -20.3125 9.921875 -18.3125 C 8.691406 -16.320312 8.128906 -13.644531 8.234375 -10.28125 Z M 8.234375 -10.28125 "/></g></g></g><g fill="#3f6556" fill-opacity="1"><g transform="translate(158.518564, 193.252648)"><g><path d="M 25.4375 -13.140625 C 25.09375 -10.367188 24.367188 -7.910156 23.265625 -5.765625 C 22.160156 -3.617188 20.785156 -2.019531 19.140625 -0.96875 C 17.492188 0.0703125 15.671875 0.566406 13.671875 0.515625 C 11.117188 0.453125 9.101562 -0.5 7.625 -2.34375 L 5.203125 10.15625 L -1.6875 10.15625 L 4.640625 -26.421875 L 10.984375 -26.4375 L 10.515625 -23.78125 C 12.421875 -25.925781 14.664062 -26.96875 17.25 -26.90625 C 19.84375 -26.84375 21.851562 -25.898438 23.28125 -24.078125 C 24.71875 -22.265625 25.488281 -19.804688 25.59375 -16.703125 C 25.625 -15.691406 25.570312 -14.503906 25.4375 -13.140625 Z M 18.609375 -13.640625 L 18.75 -15.984375 C 18.78125 -17.566406 18.488281 -18.820312 17.875 -19.75 C 17.269531 -20.675781 16.378906 -21.15625 15.203125 -21.1875 C 13.203125 -21.257812 11.550781 -20.414062 10.25 -18.65625 L 8.28125 -7.765625 C 8.882812 -6.117188 10.175781 -5.265625 12.15625 -5.203125 C 13.820312 -5.148438 15.207031 -5.789062 16.3125 -7.125 C 17.414062 -8.457031 18.179688 -10.628906 18.609375 -13.640625 Z M 18.609375 -13.640625 "/></g></g></g><g fill="#3f6556" fill-opacity="0.4"><g transform="translate(188.275919, 195.462364)"><g><path d="M 29.171875 -10.328125 L 37.75 -35.546875 L 45.046875 -35.546875 L 31.84375 0 L 24.640625 0 L 22.75 -23.6875 L 13.453125 0 L 6.25 0 L 4.15625 -35.546875 L 11.140625 -35.546875 L 11.84375 -10.453125 L 21.40625 -35.546875 L 27.484375 -35.546875 Z M 29.171875 -10.328125 "/></g></g></g><g fill="#3f6556" fill-opacity="0.4"><g transform="translate(228.570618, 195.462364)"><g><path d="M 12.625 0.484375 C 10.3125 0.472656 8.265625 -0.0859375 6.484375 -1.203125 C 4.703125 -2.316406 3.367188 -3.847656 2.484375 -5.796875 C 1.609375 -7.742188 1.269531 -9.890625 1.46875 -12.234375 L 1.53125 -13.203125 C 1.78125 -15.773438 2.53125 -18.132812 3.78125 -20.28125 C 5.039062 -22.4375 6.65625 -24.09375 8.625 -25.25 C 10.59375 -26.414062 12.769531 -26.96875 15.15625 -26.90625 C 18.5625 -26.84375 21.140625 -25.59375 22.890625 -23.15625 C 24.640625 -20.71875 25.300781 -17.640625 24.875 -13.921875 L 24.484375 -10.90625 L 8.296875 -10.90625 C 8.234375 -9.195312 8.648438 -7.832031 9.546875 -6.8125 C 10.441406 -5.789062 11.660156 -5.257812 13.203125 -5.21875 C 15.710938 -5.15625 17.910156 -6.125 19.796875 -8.125 L 22.953125 -4.21875 C 21.953125 -2.726562 20.515625 -1.5625 18.640625 -0.71875 C 16.773438 0.113281 14.769531 0.515625 12.625 0.484375 Z M 14.8125 -21.21875 C 13.550781 -21.25 12.425781 -20.847656 11.4375 -20.015625 C 10.457031 -19.191406 9.578125 -17.753906 8.796875 -15.703125 L 18.265625 -15.703125 L 18.40625 -16.328125 C 18.507812 -16.984375 18.519531 -17.601562 18.4375 -18.1875 C 18.269531 -19.132812 17.867188 -19.867188 17.234375 -20.390625 C 16.597656 -20.921875 15.789062 -21.195312 14.8125 -21.21875 Z M 14.8125 -21.21875 "/></g></g></g><g fill="#3f6556" fill-opacity="0.4"><g transform="translate(252.681324, 195.462364)"><g><path d="M 15.359375 0 C 15.148438 -0.664062 15.0625 -1.460938 15.09375 -2.390625 C 13.101562 -0.398438 10.851562 0.554688 8.34375 0.484375 C 6.039062 0.453125 4.125 -0.296875 2.59375 -1.765625 C 1.070312 -3.242188 0.363281 -5.066406 0.46875 -7.234375 C 0.582031 -10.109375 1.789062 -12.3125 4.09375 -13.84375 C 6.394531 -15.382812 9.484375 -16.15625 13.359375 -16.15625 L 16.578125 -16.109375 L 16.921875 -17.703125 C 17.015625 -18.234375 17.039062 -18.742188 17 -19.234375 C 16.914062 -20.003906 16.625 -20.601562 16.125 -21.03125 C 15.625 -21.46875 14.96875 -21.691406 14.15625 -21.703125 C 13.082031 -21.734375 12.171875 -21.46875 11.421875 -20.90625 C 10.671875 -20.34375 10.191406 -19.535156 9.984375 -18.484375 L 3.078125 -18.453125 C 3.191406 -20.972656 4.347656 -23.019531 6.546875 -24.59375 C 8.753906 -26.164062 11.476562 -26.9375 14.71875 -26.90625 C 17.71875 -26.84375 20.0625 -25.953125 21.75 -24.234375 C 23.445312 -22.515625 24.15625 -20.304688 23.875 -17.609375 L 21.84375 -4.953125 L 21.734375 -3.390625 C 21.703125 -2.234375 21.835938 -1.257812 22.140625 -0.46875 L 22.125 0 Z M 10.0625 -4.859375 C 12.039062 -4.796875 13.773438 -5.660156 15.265625 -7.453125 L 16.109375 -12.015625 L 13.71875 -12.03125 C 11.175781 -11.96875 9.347656 -11.195312 8.234375 -9.71875 C 7.828125 -9.175781 7.570312 -8.515625 7.46875 -7.734375 C 7.34375 -6.859375 7.523438 -6.164062 8.015625 -5.65625 C 8.515625 -5.144531 9.195312 -4.878906 10.0625 -4.859375 Z M 10.0625 -4.859375 "/></g></g></g><g fill="#3f6556" fill-opacity="0.4"><g transform="translate(276.572335, 195.462364)"><g><path d="M 18.171875 -19.796875 C 17.222656 -19.960938 16.445312 -20.046875 15.84375 -20.046875 C 13.382812 -20.109375 11.441406 -19.1875 10.015625 -17.28125 L 6.953125 0 L 0.078125 0 L 4.65625 -26.421875 L 11.140625 -26.4375 L 10.5 -23.21875 C 12.15625 -25.707031 14.207031 -26.953125 16.65625 -26.953125 C 17.332031 -26.953125 18.128906 -26.835938 19.046875 -26.609375 Z M 18.171875 -19.796875 "/></g></g></g><g fill="#3f6556" fill-opacity="1"><g transform="translate(186.066203, 193.252648)"><g><path d="M 29.171875 -10.328125 L 37.75 -35.546875 L 45.046875 -35.546875 L 31.84375 0 L 24.640625 0 L 22.75 -23.6875 L 13.453125 0 L 6.25 0 L 4.15625 -35.546875 L 11.140625 -35.546875 L 11.84375 -10.453125 L 21.40625 -35.546875 L 27.484375 -35.546875 Z M 29.171875 -10.328125 "/></g></g></g><g fill="#3f6556" fill-opacity="1"><g transform="translate(226.360903, 193.252648)"><g><path d="M 12.625 0.484375 C 10.3125 0.472656 8.265625 -0.0859375 6.484375 -1.203125 C 4.703125 -2.316406 3.367188 -3.847656 2.484375 -5.796875 C 1.609375 -7.742188 1.269531 -9.890625 1.46875 -12.234375 L 1.53125 -13.203125 C 1.78125 -15.773438 2.53125 -18.132812 3.78125 -20.28125 C 5.039062 -22.4375 6.65625 -24.09375 8.625 -25.25 C 10.59375 -26.414062 12.769531 -26.96875 15.15625 -26.90625 C 18.5625 -26.84375 21.140625 -25.59375 22.890625 -23.15625 C 24.640625 -20.71875 25.300781 -17.640625 24.875 -13.921875 L 24.484375 -10.90625 L 8.296875 -10.90625 C 8.234375 -9.195312 8.648438 -7.832031 9.546875 -6.8125 C 10.441406 -5.789062 11.660156 -5.257812 13.203125 -5.21875 C 15.710938 -5.15625 17.910156 -6.125 19.796875 -8.125 L 22.953125 -4.21875 C 21.953125 -2.726562 20.515625 -1.5625 18.640625 -0.71875 C 16.773438 0.113281 14.769531 0.515625 12.625 0.484375 Z M 14.8125 -21.21875 C 13.550781 -21.25 12.425781 -20.847656 11.4375 -20.015625 C 10.457031 -19.191406 9.578125 -17.753906 8.796875 -15.703125 L 18.265625 -15.703125 L 18.40625 -16.328125 C 18.507812 -16.984375 18.519531 -17.601562 18.4375 -18.1875 C 18.269531 -19.132812 17.867188 -19.867188 17.234375 -20.390625 C 16.597656 -20.921875 15.789062 -21.195312 14.8125 -21.21875 Z M 14.8125 -21.21875 "/></g></g></g><g fill="#3f6556" fill-opacity="1"><g transform="translate(250.471609, 193.252648)"><g><path d="M 15.359375 0 C 15.148438 -0.664062 15.0625 -1.460938 15.09375 -2.390625 C 13.101562 -0.398438 10.851562 0.554688 8.34375 0.484375 C 6.039062 0.453125 4.125 -0.296875 2.59375 -1.765625 C 1.070312 -3.242188 0.363281 -5.066406 0.46875 -7.234375 C 0.582031 -10.109375 1.789062 -12.3125 4.09375 -13.84375 C 6.394531 -15.382812 9.484375 -16.15625 13.359375 -16.15625 L 16.578125 -16.109375 L 16.921875 -17.703125 C 17.015625 -18.234375 17.039062 -18.742188 17 -19.234375 C 16.914062 -20.003906 16.625 -20.601562 16.125 -21.03125 C 15.625 -21.46875 14.96875 -21.691406 14.15625 -21.703125 C 13.082031 -21.734375 12.171875 -21.46875 11.421875 -20.90625 C 10.671875 -20.34375 10.191406 -19.535156 9.984375 -18.484375 L 3.078125 -18.453125 C 3.191406 -20.972656 4.347656 -23.019531 6.546875 -24.59375 C 8.753906 -26.164062 11.476562 -26.9375 14.71875 -26.90625 C 17.71875 -26.84375 20.0625 -25.953125 21.75 -24.234375 C 23.445312 -22.515625 24.15625 -20.304688 23.875 -17.609375 L 21.84375 -4.953125 L 21.734375 -3.390625 C 21.703125 -2.234375 21.835938 -1.257812 22.140625 -0.46875 L 22.125 0 Z M 10.0625 -4.859375 C 12.039062 -4.796875 13.773438 -5.660156 15.265625 -7.453125 L 16.109375 -12.015625 L 13.71875 -12.03125 C 11.175781 -11.96875 9.347656 -11.195312 8.234375 -9.71875 C 7.828125 -9.175781 7.570312 -8.515625 7.46875 -7.734375 C 7.34375 -6.859375 7.523438 -6.164062 8.015625 -5.65625 C 8.515625 -5.144531 9.195312 -4.878906 10.0625 -4.859375 Z M 10.0625 -4.859375 "/></g></g></g><g fill="#3f6556" fill-opacity="1"><g transform="translate(274.362619, 193.252648)"><g><path d="M 18.171875 -19.796875 C 17.222656 -19.960938 16.445312 -20.046875 15.84375 -20.046875 C 13.382812 -20.109375 11.441406 -19.1875 10.015625 -17.28125 L 6.953125 0 L 0.078125 0 L 4.65625 -26.421875 L 11.140625 -26.4375 L 10.5 -23.21875 C 12.15625 -25.707031 14.207031 -26.953125 16.65625 -26.953125 C 17.332031 -26.953125 18.128906 -26.835938 19.046875 -26.609375 Z M 18.171875 -19.796875 "/></g></g></g></svg>